# xmcd
#
# Track frame offsets:
#	150
#	27461
#	43475
#	65323
#	86041
#	108399
#	121309
#	139899
#	162399
#	182383
#	198771
#	214552
#	237378
#	254882
#	272260
#	289143
#	299199
#	314344
#	337610
#
# Disc length: 4728 seconds
#
# Revision: 1
# Processed by: cddbd v1.5.2PL0 Copyright (c) Steve Scherf et al.
# Submitted via: audiograbber 1.83.01
#
DISCID=26127613
DTITLE=Various Artist - Hard Trance Bootlegs 2008
DYEAR=2008
DGENRE=Hard Trance
TTITLE0=Quake vs K-Series feat. Pete Millwood - By The Way 2008
TTITLE1=Steve Hill vs Nylon - If You Love Me (K-Series Mix)
TTITLE2=Masif DJ's - Everyday (Steve Hill vs Technikal Mix)
TTITLE3=Volts Wagen - Out Of The Blue (MDA and Spherical 2008 Mix)
TTITLE4=Masif DJ's - Home (Steve Hill vs Technikal Mix)
TTITLE5=K-Series - Greece 2000
TTITLE6=Expose - 7 Cities (Phil York and The Coalition Mix)
TTITLE7=Neon Lights - Need To Feel Loved (Steve Hill vs Technikal Mix)
TTITLE8=Neon Lights - Bullet In The Gun (MDA and Spherical 2008 Exclusive Mix)
TTITLE9=Seve Hill vs Guyver - Wasted (Original Mix)
TTITLE10=Masif DJ's - Why Does My Heart (Feel So Bad) (Steve Hill vs Technikal 
TTITLE10=Mix)
TTITLE11=Masif DJ's - Reaching (Into My Brain) (Adrenaline Dept 2008 Disco-Tek 
TTITLE11=Mix)
TTITLE12=Steve Hill vs Technikal - Weekend (MDA and Spherical Mix)
TTITLE13=Neon Lights - Not Over Yet (Cally Gage and Greg Brookman Mix)
TTITLE14=Masif DJ's feat. Pete Millwood - Cry Little Sister (Steve Hill vs Yosh
TTITLE14=i Mix)
TTITLE15=Shark Boy - At Night
TTITLE16=Bootek DJ's - Son Of A Gun 2008
TTITLE17=Mr. Bishi - Masif DJ's - One More (Acapella) - 1998 (Steve Hill vs Tec
TTITLE17=hnikal Mix)
TTITLE18=Masif DJ's - Children (Steve Hill vs D10 Encore Mix)
EXTD=
EXTT0=
EXTT1=
EXTT2=
EXTT3=
EXTT4=
EXTT5=
EXTT6=
EXTT7=
EXTT8=
EXTT9=
EXTT10=
EXTT11=
EXTT12=
EXTT13=
EXTT14=
EXTT15=
EXTT16=
EXTT17=
EXTT18=
PLAYORDER=
